<?xml version="1.0" encoding="UTF-8"?>
<svg width="110px" height="22px" viewBox="0 0 110 22" version="1.1" xmlns="http://www.w3.org/2000/svg" xmlns:xlink="http://www.w3.org/1999/xlink">
    <title>FETAQ </title>
    <g id="页面-1" stroke="none" stroke-width="1" fill="none" fill-rule="evenodd">
        <g id="首页" transform="translate(-50.000000, -30.000000)" fill="#101820" fill-rule="nonzero">
            <g id="FETAQ-" transform="translate(50.000000, 30.000000)">
                <path d="M103.43629,21.5690093 C101.722382,21.5690093 100.006714,21.6059622 98.294566,21.5690093 C95.4949481,21.4951037 92.8712962,20.8141155 90.6594045,19.0051858 C88.6621912,17.372222 87.2527042,15.3415752 86.8321456,12.7443182 C86.3042478,9.49070821 87.1682405,6.60486703 89.2499174,4.06743839 C93.1827559,-0.724113767 100.571565,-1.24497291 105.232902,2.30777913 C108.435482,4.74666686 109.864326,8.02491205 109.508874,12.0457334 C109.434468,12.7428515 109.313366,13.4341909 109.146385,14.1150927 C109.026728,14.6429905 108.794453,14.6940206 108.402049,14.3086553 C107.267069,13.1859926 106.128569,12.068609 105.009426,10.9283498 C104.807149,10.7436608 104.674249,10.4952491 104.632859,10.2244861 C104.613502,8.08298081 102.521268,5.33087373 99.8254696,4.75194584 C97.2176545,4.19061453 94.8984236,4.72027197 93.0437428,6.71396591 C90.5608636,9.37633036 91.1503494,13.8933757 94.189281,15.9011469 C96.564821,17.4742823 99.6055121,17.532351 101.840279,16.0208037 C102.230304,15.7328824 102.597952,15.4158227 102.940066,15.0723474 C103.343028,14.6940206 103.608737,14.6746644 103.995862,15.0582701 C105.946738,17.0009339 107.895853,18.9459439 109.84321,20.8933002 C110.10188,21.1519701 110.035013,21.4423139 109.683081,21.5443741 C109.509848,21.5823162 109.332175,21.5959379 109.155183,21.5848463 L103.43629,21.5848463 L103.43629,21.5690093 Z" id="路径"></path>
                <path d="M20.5880133,11.2538868 L20.5880133,1.81331488 C20.5880133,1.12176879 20.7833355,0.922927296 21.4678429,0.922927296 L36.722329,0.922927296 C37.3593256,0.922927296 37.5687251,1.12880743 37.5722444,1.75524612 C37.5722444,2.5306693 37.5722444,3.30667903 37.5722444,4.08327532 C37.5722444,4.74314754 37.3681239,4.94550835 36.7100114,4.94726801 L26.3808116,4.94726801 C25.6083211,4.94726801 25.4341149,5.12323394 25.4341149,5.90452265 C25.4341149,6.81250682 25.4341149,7.71873134 25.4341149,8.62671552 C25.4341149,9.2707508 25.6575916,9.49598719 26.3139445,9.50654514 C28.5117589,9.50654514 30.7130926,9.50654514 32.9091474,9.50654514 C33.6605219,9.50654514 33.8118526,9.65787584 33.8136122,10.4022117 C33.8136122,11.0902385 33.8136122,11.7800249 33.8136122,12.4680517 C33.8136122,13.1173659 33.6218094,13.3074091 32.9812934,13.3091688 L26.3368201,13.3091688 C25.6329564,13.3091688 25.4341149,13.5115296 25.4341149,14.2277109 C25.4341149,15.0641356 25.4341149,15.8988007 25.4341149,16.731706 C25.4341149,17.3810203 25.6540723,17.6009777 26.3033865,17.6115357 L36.6853762,17.6115357 C37.4226734,17.6115357 37.5810427,17.7734243 37.5828024,18.5142409 C37.5828024,19.2902506 37.5828024,20.0662603 37.5828024,20.8422701 C37.5828024,21.3895241 37.3857205,21.6006832 36.8525438,21.6006832 C31.6627221,21.6006832 26.47466,21.6006832 21.2883577,21.6006832 C20.7780565,21.6006832 20.5985712,21.3842451 20.5985712,20.8088365 C20.5915326,17.620334 20.5880133,14.4353507 20.5880133,11.2538868 Z" id="路径"></path>
                <path d="M73.6892506,0.921167637 C74.6852178,0.921167637 75.6811849,0.921167637 76.6806714,0.921167637 C77.0568585,0.885902759 77.4068624,1.11728609 77.5217885,1.47721996 C80.1554118,7.84718647 82.7925545,14.2148068 85.4332165,20.5800808 C85.6918864,21.2047599 85.4332165,21.5795673 84.7663056,21.5830866 C83.7562612,21.5830866 82.7444572,21.56549 81.7344127,21.5936446 C81.2311502,21.6094815 80.968961,21.4000821 80.7701195,20.9548883 C78.6573553,16.2354821 76.5387255,11.5178357 74.4142302,6.80194887 C74.3790371,6.7227642 74.3649598,6.61542499 74.3051314,6.56615453 C74.1045302,6.40074656 73.8898518,6.14559597 73.6734137,6.13503801 C73.4833705,6.13503801 73.201825,6.36555337 73.0980051,6.56439487 C72.737275,7.26825857 72.4363732,7.99499784 72.1125959,8.71469848 C70.2719924,12.8053197 68.433735,16.897114 66.5978238,20.9900814 C66.4025017,21.4299963 66.1367931,21.6059622 65.6599255,21.5954042 C64.649881,21.570769 63.638077,21.5954042 62.6262729,21.5848463 C61.9417654,21.5848463 61.6883745,21.2117985 61.9452848,20.5888791 C64.5847736,14.2189126 67.2242625,7.84953268 69.8637514,1.48073928 C69.9768727,1.12023078 70.3248103,0.88632311 70.7013492,0.917648319 C71.6973164,0.929965933 72.6932835,0.921167637 73.6892506,0.921167637 Z" id="路径"></path>
                <path d="M0,11.1518265 L0,1.75172681 C0,1.0654597 0.144292059,0.921167637 0.855194398,0.921167637 L16.5020845,0.921167637 C17.2217851,0.922927296 17.4206266,1.11824947 17.4206266,1.82211318 C17.4206266,2.58345908 17.4206266,3.34597809 17.4206266,4.10967021 C17.4206266,4.73434924 17.2041885,4.94902767 16.5742305,4.94902767 L5.80687554,4.94902767 C5.01502888,4.94902767 4.84610159,5.11267598 4.84610159,5.88692606 C4.84610159,6.80898751 4.84610159,7.73104896 4.84610159,8.6531104 C4.84610159,9.28306842 5.0572607,9.49950651 5.68721871,9.50126617 C8.01700757,9.50126617 10.3467964,9.50126617 12.6748256,9.50126617 C12.9031628,9.49696902 13.1275294,9.56133648 13.3188609,9.68603039 C13.612724,9.90950711 13.5722518,10.3547009 13.2519939,10.5940146 C12.1961983,11.3805823 11.1509607,12.1777079 10.054693,12.9132455 C9.66687274,13.1415885 9.22710753,13.2669761 8.77718037,13.2774949 C7.76889561,13.3302847 6.75709154,13.2915722 5.74528747,13.2950915 C5.10829082,13.2950915 4.84786125,13.5625597 4.84610159,14.2083547 C4.84610159,16.3750818 4.84610159,18.5412223 4.84610159,20.7067763 C4.84610159,21.3807258 4.65781805,21.5778076 3.99618617,21.5866059 C2.94039062,21.5866059 1.88459506,21.5866059 0.828799509,21.5866059 C0.225236385,21.5866059 0.00879829628,21.3824855 0.00175965926,20.7683644 C0,19.7002512 0,18.632138 0,17.5640249 L0,11.1518265 Z" id="路径"></path>
                <path d="M51.3257412,0.921167637 L60.8279011,0.921167637 C61.5792756,0.921167637 61.7605205,1.09713356 61.7605205,1.84674841 C61.7605205,2.62275814 61.7605205,3.39876787 61.7605205,4.1747776 C61.7605205,4.72203163 61.5352842,4.94550835 60.9845108,4.94550835 C58.8600155,4.94550835 56.7355203,4.94550835 54.611025,4.94550835 C53.9177192,4.94550835 53.7311954,5.12147428 53.7311954,5.82533798 L53.7311954,20.6275916 C53.7311954,21.405361 53.5552294,21.5778076 52.77746,21.5795673 C51.7357418,21.5795673 50.6957831,21.5795673 49.6558245,21.5795673 C49.0153086,21.5795673 48.8235057,21.3824855 48.8235057,20.7402098 C48.8164671,15.8061253 48.8106015,10.8720407 48.8059091,5.93795617 C48.8059091,5.10035837 48.6422608,4.94022938 47.8064226,4.94022938 L41.6933664,4.94022938 C40.9895027,4.94022938 40.7994595,4.75194584 40.7976998,4.06039975 C40.7976998,3.31430422 40.7976998,2.56762215 40.7976998,1.82035352 C40.7976998,1.09713356 40.9859834,0.908850022 41.700405,0.908850022 L51.3257412,0.921167637 Z" id="路径"></path>
            </g>
        </g>
    </g>
</svg>