<?xml version="1.0" encoding="UTF-8"?>
<svg width="250px" height="50px" viewBox="0 0 250 50" version="1.1" xmlns="http://www.w3.org/2000/svg" xmlns:xlink="http://www.w3.org/1999/xlink">
    <title>FETAQ </title>
    <g id="页面-1" stroke="none" stroke-width="1" fill="none" fill-rule="evenodd">
        <g id="首页" transform="translate(-827.000000, -571.000000)" fill="#FFFFFF" fill-rule="nonzero">
            <g id="FETAQ-" transform="translate(827.000000, 571.000000)">
                <path d="M235.082478,49.0204758 C231.187232,49.0204758 227.287987,49.1044595 223.396741,49.0204758 C217.033973,48.8525083 211.071128,47.304808 206.044101,43.1936041 C201.50498,39.4823228 198.3016,34.8672164 197.345785,28.9643595 C196.146018,21.5697914 198.109638,15.0110614 202.840721,9.24417815 C211.778991,-1.64571311 228.571739,-2.82948388 239.165687,5.24495257 C246.444278,10.7878792 249.691649,18.2384365 248.883806,27.3766669 C248.714699,28.9610261 248.439468,30.5322521 248.059965,32.0797562 C247.788018,33.2795239 247.26012,33.3955014 246.368293,32.519671 C243.788792,29.9681651 241.201293,27.4286569 238.657786,24.8371587 C238.198067,24.4174109 237.896021,23.8528389 237.801951,23.2374685 C237.75796,18.3704109 233.002881,12.1156221 226.876067,10.7998769 C220.949215,9.52412394 215.678236,10.7278908 211.463052,15.2590134 C205.820144,21.3098417 207.159885,31.5758538 214.066548,36.1389702 C219.465502,39.7142778 226.376164,39.8462523 231.45518,36.4109175 C232.3416,35.7565508 233.177163,35.0359607 233.954696,34.2553349 C234.870519,33.3955014 235.474402,33.3515099 236.354232,34.2233411 C240.78804,38.6384862 245.217849,43.0589635 249.643658,47.4847731 C250.231545,48.0726593 250.079574,48.7325315 249.279729,48.9644866 C248.886019,49.0507187 248.482215,49.0816771 248.079961,49.0564688 L235.082478,49.0564688 L235.082478,49.0204758 Z" id="路径"></path>
                <path d="M46.7909393,25.5770154 L46.7909393,4.12117018 C46.7909393,2.54947453 47.2348533,2.09756204 48.7905521,2.09756204 L83.4598386,2.09756204 C84.9075583,2.09756204 85.3834661,2.56547143 85.3914646,3.98919574 C85.3914646,5.75152114 85.3914646,7.51517962 85.3914646,9.28017118 C85.3914646,10.7798808 84.9275544,11.2397917 83.4318441,11.2437909 L59.9563899,11.2437909 C58.2007299,11.2437909 57.8048065,11.6437135 57.8048065,13.4193697 C57.8048065,15.4829701 57.8048065,17.5425712 57.8048065,19.6061716 C57.8048065,21.0698882 58.3127082,21.5817891 59.8044193,21.6057844 C64.7994521,21.6057844 69.8024833,21.6057844 74.7935168,21.6057844 C76.5011861,21.6057844 76.8451195,21.9497178 76.8491187,23.6413902 C76.8491187,25.2050874 76.8491187,26.7727839 76.8491187,28.3364811 C76.8491187,29.8121953 76.4132032,30.2441117 74.9574851,30.2481109 L59.8564093,30.2481109 C58.256719,30.2481109 57.8048065,30.7080218 57.8048065,32.3357066 C57.8048065,34.2366719 57.8048065,36.1336379 57.8048065,38.0266047 C57.8048065,39.5023189 58.3047097,40.0022221 59.780424,40.0262174 L83.3758549,40.0262174 C85.0515304,40.0262174 85.4114607,40.3941462 85.4154599,42.0778202 C85.4154599,43.8414786 85.4154599,45.6051371 85.4154599,47.3687956 C85.4154599,48.6125548 84.9675467,49.0924618 83.7557813,49.0924618 C71.960732,49.0924618 60.1696819,49.0924618 48.3826311,49.0924618 C47.2228557,49.0924618 46.8149346,48.6005571 46.8149346,47.2928103 C46.7989377,40.0462136 46.7909393,32.8076153 46.7909393,25.5770154 Z" id="路径"></path>
                <path d="M167.47557,2.09356281 C169.739131,2.09356281 172.002693,2.09356281 174.274253,2.09356281 C175.129224,2.01341536 175.924687,2.53928657 176.185883,3.35731809 C182.171391,17.8345147 188.164897,32.306379 194.166401,46.772911 C194.754287,48.1926361 194.166401,49.0444711 192.650695,49.0524696 C190.355139,49.0524696 188.055584,49.0124773 185.760029,49.0764649 C184.61625,49.112458 184.020366,48.6365501 183.568453,47.624746 C178.766717,36.898823 173.951649,26.1768993 169.123251,15.4589747 C169.043266,15.2790095 169.011272,15.0350568 168.875299,14.9230785 C168.419387,14.5471513 167.931481,13.9672636 167.439577,13.9432682 C167.00766,13.9432682 166.367784,14.4671668 166.13183,14.9190792 C165.311989,16.5187695 164.628121,18.1704496 163.892264,19.8061329 C159.709074,29.1029993 155.531216,38.4025319 151.358691,47.7047306 C150.914776,48.7045369 150.310893,49.1044595 149.227103,49.0804642 C146.931548,49.024475 144.631993,49.0804642 142.332438,49.0564688 C140.77674,49.0564688 140.200851,48.208633 140.784738,46.7929071 C146.783576,32.3157105 152.782415,17.839847 158.781253,3.36531655 C159.038347,2.54597904 159.829114,2.01437071 160.684885,2.08556436 C162.948446,2.11355894 165.212008,2.09356281 167.47557,2.09356281 Z" id="路径"></path>
                <path d="M0,25.3450603 L0,3.98119729 C0,2.42149931 0.327936498,2.09356281 1.94362363,2.09356281 L37.5047375,2.09356281 C39.1404208,2.09756204 39.5923332,2.54147608 39.5923332,4.14116631 C39.5923332,5.87149791 39.5923332,7.60449566 39.5923332,9.34015956 C39.5923332,10.7598846 39.1004285,11.2477902 37.6687057,11.2477902 L13.1974444,11.2477902 C11.3977929,11.2477902 11.0138672,11.6197181 11.0138672,13.3793774 C11.0138672,15.4749716 11.0138672,17.5705658 11.0138672,19.66616 C11.0138672,21.0978828 11.4937743,21.5897875 12.9254971,21.5937867 C18.2204717,21.5937867 23.5154464,21.5937867 28.8064219,21.5937867 C29.32537,21.5840205 29.835294,21.7303102 30.2701384,22.0137054 C30.9380091,22.5216071 30.8460269,23.5334111 30.1181678,24.0773058 C27.7186325,25.8649597 25.3430925,27.6766088 22.851575,29.3482851 C21.9701653,29.8672466 20.9706989,30.1522185 19.9481372,30.1761248 C17.6565809,30.2961016 15.3570262,30.2081186 13.0574715,30.2161171 C11.6097519,30.2161171 11.0178665,30.8239994 11.0138672,32.2917152 C11.0138672,37.2160949 11.0138672,42.1391416 11.0138672,47.0608552 C11.0138672,48.5925586 10.5859501,49.0404719 9.08224129,49.060468 C6.68270594,49.060468 4.2831706,49.060468 1.88363525,49.060468 C0.511900874,49.060468 0.0199961279,48.5965579 0.00399922558,47.2008281 C0,44.7732982 0,42.3457683 0,39.9182383 L0,25.3450603 Z" id="路径"></path>
                <path d="M116.649412,2.09356281 L138.24523,2.09356281 C139.952899,2.09356281 140.364819,2.49348537 140.364819,4.19715547 C140.364819,5.96081395 140.364819,7.72447243 140.364819,9.48813091 C140.364819,10.7318901 139.852919,11.2397917 138.601161,11.2397917 C133.772763,11.2397917 128.944364,11.2397917 124.115966,11.2397917 C122.540271,11.2397917 122.116353,11.6397143 122.116353,13.2394045 L122.116353,46.8808901 C122.116353,48.6485478 121.716431,49.0404719 119.948773,49.0444711 C117.581231,49.0444711 115.217689,49.0444711 112.854147,49.0444711 C111.398429,49.0444711 110.962513,48.5965579 110.962513,47.1368405 C110.946516,35.923012 110.933185,24.7091835 110.922521,13.4953549 C110.922521,11.5917236 110.550593,11.227794 108.650961,11.227794 L94.7576509,11.227794 C93.1579607,11.227794 92.7260443,10.7998769 92.7220451,9.22818125 C92.7220451,7.5325096 92.7220451,5.83550488 92.7220451,4.13716708 C92.7220451,2.49348537 93.1499622,2.06556823 94.7736478,2.06556823 L116.649412,2.09356281 Z" id="路径"></path>
            </g>
        </g>
    </g>
</svg>