<?xml version="1.0" encoding="UTF-8"?>
<svg width="18px" height="18px" viewBox="0 0 18 18" version="1.1" xmlns="http://www.w3.org/2000/svg" xmlns:xlink="http://www.w3.org/1999/xlink">
    <title>sousuoxiao</title>
    <g id="页面-1" stroke="none" stroke-width="1" fill="none" fill-rule="evenodd">
        <g id="首页一屏" transform="translate(-249.000000, -71.000000)" fill="#000000" fill-rule="nonzero">
            <g id="编组-3" transform="translate(0.000000, 45.000000)">
                <g id="sousuoxiao" transform="translate(249.000000, 26.000000)">
                    <path d="M13.3957699,12.3456841 C13.4335427,12.3721251 13.4705601,12.401588 13.5038003,12.436339 L17.7827108,16.714494 C18.07054,17.0023233 18.0750727,17.4850605 17.7804444,17.7796889 C17.6397628,17.9219505 17.4481708,18.002257 17.2480975,18.0028272 C17.0480242,18.0033914 16.8559799,17.9241724 16.714494,17.7827108 L12.4355836,13.5038003 C12.4024912,13.4707159 12.3726405,13.4345409 12.3464396,13.3957699 C10.9966592,14.506161 9.3023915,15.1119625 7.55457358,15.1091471 C3.3821826,15.1091471 0,11.7269646 0,7.55457358 C0,3.3821826 3.3821826,0 7.55457358,0 C11.7269646,0 15.1091472,3.3821826 15.1091471,7.55457358 C15.1091471,9.37295945 14.4670084,11.0417647 13.3957699,12.3456841 Z M7.55457358,13.5982324 C10.8923942,13.5982324 13.5982324,10.8923942 13.5982324,7.55457357 C13.5982324,4.21675295 10.8923942,1.51091471 7.55457358,1.51091471 C4.21675296,1.51091471 1.51091472,4.21675295 1.51091472,7.55457357 C1.51091472,10.8923942 4.21675296,13.5982324 7.55457358,13.5982324 Z" id="形状"></path>
                </g>
            </g>
        </g>
    </g>
</svg>