<?xml version="1.0" encoding="UTF-8"?>
<svg width="20px" height="20px" viewBox="0 0 20 20" version="1.1" xmlns="http://www.w3.org/2000/svg" xmlns:xlink="http://www.w3.org/1999/xlink">
    <title>sousuoxiao</title>
    <g id="页面-1" stroke="none" stroke-width="1" fill="none" fill-rule="evenodd">
        <g id="首页" transform="translate(-1865.000000, -19.000000)" fill="#FFFFFF" fill-rule="nonzero">
            <g id="编组-25" transform="translate(1846.000000, 0.000000)">
                <g id="sousuoxiao" transform="translate(19.000000, 19.000000)">
                    <path d="M14.8841887,13.7174268 C14.9261586,13.7468057 14.967289,13.7795422 15.0042225,13.8181545 L19.7585675,18.57166 C20.0783778,18.8914703 20.0834142,19.4278451 19.7560493,19.7552099 C19.5997364,19.9132783 19.3868565,20.0025078 19.1645528,20.0031414 C18.9422491,20.0037682 18.7288666,19.9157471 18.57166,19.7585675 L13.8173151,15.0042225 C13.7805458,14.9674621 13.7473784,14.9272676 13.7182662,14.8841887 C12.2185103,16.1179566 10.3359906,16.7910695 8.39397065,16.7879413 C3.75798066,16.7879413 0,13.0299606 0,8.39397065 C0,3.75798066 3.75798066,0 8.39397065,0 C13.0299606,0 16.7879413,3.75798066 16.7879413,8.39397065 C16.7879413,10.4143994 16.0744538,12.2686275 14.8841887,13.7174268 Z M8.39397065,15.1091472 C12.1026602,15.1091472 15.1091472,12.1026602 15.1091472,8.39397064 C15.1091472,4.68528106 12.1026602,1.67879412 8.39397065,1.67879412 C4.68528107,1.67879412 1.67879413,4.68528106 1.67879413,8.39397064 C1.67879413,12.1026602 4.68528107,15.1091472 8.39397065,15.1091472 Z" id="形状"></path>
                </g>
            </g>
        </g>
    </g>
</svg>